<?xml version="1.0" encoding="utf-8" standalone="no"?>
<!DOCTYPE svg PUBLIC "-//W3C//DTD SVG 1.1//EN"
  "http://www.w3.org/Graphics/SVG/1.1/DTD/svg11.dtd">
<svg xmlns:xlink="http://www.w3.org/1999/xlink" width="708.930938pt" height="321.04875pt" viewBox="0 0 708.930938 321.04875" xmlns="http://www.w3.org/2000/svg" version="1.1">
 <metadata>
  <rdf:RDF xmlns:dc="http://purl.org/dc/elements/1.1/" xmlns:cc="http://creativecommons.org/ns#" xmlns:rdf="http://www.w3.org/1999/02/22-rdf-syntax-ns#">
   <cc:Work>
    <dc:type rdf:resource="http://purl.org/dc/dcmitype/StillImage"/>
    <dc:date>2024-02-15T14:37:40.203253</dc:date>
    <dc:format>image/svg+xml</dc:format>
    <dc:creator>
     <cc:Agent>
      <dc:title>Matplotlib v3.8.2, https://matplotlib.org/</dc:title>
     </cc:Agent>
    </dc:creator>
   </cc:Work>
  </rdf:RDF>
 </metadata>
 <defs>
  <style type="text/css">*{stroke-linejoin: round; stroke-linecap: butt}</style>
 </defs>
 <g id="figure_1">
  <g id="patch_1">
   <path d="M 0 321.04875 
L 708.930938 321.04875 
L 708.930938 0 
L 0 0 
z
" style="fill: #ffffff"/>
  </g>
  <g id="axes_1">
   <g id="patch_2">
    <path d="M 42.354375 284.4 
L 600.354375 284.4 
L 600.354375 7.2 
L 42.354375 7.2 
z
" style="fill: #eaeaf2"/>
   </g>
   <g id="matplotlib.axis_1">
    <g id="xtick_1">
     <g id="line2d_1">
      <path d="M 67.718011 284.4 
L 67.718011 7.2 
" clip-path="url(#p229495e34f)" style="fill: none; stroke: #ffffff; stroke-width: 0.8; stroke-linecap: round"/>
     </g>
     <g id="line2d_2"/>
     <g id="text_1">
      <!-- 0.0 -->
      <g style="fill: #262626" transform="translate(59.378011 296.489375) scale(0.12 -0.12)">
       <defs>
        <path id="ArialMT-30" d="M 266 2259 
Q 266 3072 433 3567 
Q 600 4063 929 4331 
Q 1259 4600 1759 4600 
Q 2128 4600 2406 4451 
Q 2684 4303 2865 4023 
Q 3047 3744 3150 3342 
Q 3253 2941 3253 2259 
Q 3253 1453 3087 958 
Q 2922 463 2592 192 
Q 2263 -78 1759 -78 
Q 1097 -78 719 397 
Q 266 969 266 2259 
z
M 844 2259 
Q 844 1131 1108 757 
Q 1372 384 1759 384 
Q 2147 384 2411 759 
Q 2675 1134 2675 2259 
Q 2675 3391 2411 3762 
Q 2147 4134 1753 4134 
Q 1366 4134 1134 3806 
Q 844 3388 844 2259 
z
" transform="scale(0.015625)"/>
        <path id="ArialMT-2e" d="M 581 0 
L 581 641 
L 1222 641 
L 1222 0 
L 581 0 
z
" transform="scale(0.015625)"/>
       </defs>
       <use xlink:href="#ArialMT-30"/>
       <use xlink:href="#ArialMT-2e" x="55.615234"/>
       <use xlink:href="#ArialMT-30" x="83.398438"/>
      </g>
     </g>
    </g>
    <g id="xtick_2">
     <g id="line2d_3">
      <path d="M 169.172557 284.4 
L 169.172557 7.2 
" clip-path="url(#p229495e34f)" style="fill: none; stroke: #ffffff; stroke-width: 0.8; stroke-linecap: round"/>
     </g>
     <g id="line2d_4"/>
     <g id="text_2">
      <!-- 0.2 -->
      <g style="fill: #262626" transform="translate(160.832557 296.489375) scale(0.12 -0.12)">
       <defs>
        <path id="ArialMT-32" d="M 3222 541 
L 3222 0 
L 194 0 
Q 188 203 259 391 
Q 375 700 629 1000 
Q 884 1300 1366 1694 
Q 2113 2306 2375 2664 
Q 2638 3022 2638 3341 
Q 2638 3675 2398 3904 
Q 2159 4134 1775 4134 
Q 1369 4134 1125 3890 
Q 881 3647 878 3216 
L 300 3275 
Q 359 3922 746 4261 
Q 1134 4600 1788 4600 
Q 2447 4600 2831 4234 
Q 3216 3869 3216 3328 
Q 3216 3053 3103 2787 
Q 2991 2522 2730 2228 
Q 2469 1934 1863 1422 
Q 1356 997 1212 845 
Q 1069 694 975 541 
L 3222 541 
z
" transform="scale(0.015625)"/>
       </defs>
       <use xlink:href="#ArialMT-30"/>
       <use xlink:href="#ArialMT-2e" x="55.615234"/>
       <use xlink:href="#ArialMT-32" x="83.398438"/>
      </g>
     </g>
    </g>
    <g id="xtick_3">
     <g id="line2d_5">
      <path d="M 270.627102 284.4 
L 270.627102 7.2 
" clip-path="url(#p229495e34f)" style="fill: none; stroke: #ffffff; stroke-width: 0.8; stroke-linecap: round"/>
     </g>
     <g id="line2d_6"/>
     <g id="text_3">
      <!-- 0.4 -->
      <g style="fill: #262626" transform="translate(262.287102 296.489375) scale(0.12 -0.12)">
       <defs>
        <path id="ArialMT-34" d="M 2069 0 
L 2069 1097 
L 81 1097 
L 81 1613 
L 2172 4581 
L 2631 4581 
L 2631 1613 
L 3250 1613 
L 3250 1097 
L 2631 1097 
L 2631 0 
L 2069 0 
z
M 2069 1613 
L 2069 3678 
L 634 1613 
L 2069 1613 
z
" transform="scale(0.015625)"/>
       </defs>
       <use xlink:href="#ArialMT-30"/>
       <use xlink:href="#ArialMT-2e" x="55.615234"/>
       <use xlink:href="#ArialMT-34" x="83.398438"/>
      </g>
     </g>
    </g>
    <g id="xtick_4">
     <g id="line2d_7">
      <path d="M 372.081648 284.4 
L 372.081648 7.2 
" clip-path="url(#p229495e34f)" style="fill: none; stroke: #ffffff; stroke-width: 0.8; stroke-linecap: round"/>
     </g>
     <g id="line2d_8"/>
     <g id="text_4">
      <!-- 0.6 -->
      <g style="fill: #262626" transform="translate(363.741648 296.489375) scale(0.12 -0.12)">
       <defs>
        <path id="ArialMT-36" d="M 3184 3459 
L 2625 3416 
Q 2550 3747 2413 3897 
Q 2184 4138 1850 4138 
Q 1581 4138 1378 3988 
Q 1113 3794 959 3422 
Q 806 3050 800 2363 
Q 1003 2672 1297 2822 
Q 1591 2972 1913 2972 
Q 2475 2972 2870 2558 
Q 3266 2144 3266 1488 
Q 3266 1056 3080 686 
Q 2894 316 2569 119 
Q 2244 -78 1831 -78 
Q 1128 -78 684 439 
Q 241 956 241 2144 
Q 241 3472 731 4075 
Q 1159 4600 1884 4600 
Q 2425 4600 2770 4297 
Q 3116 3994 3184 3459 
z
M 888 1484 
Q 888 1194 1011 928 
Q 1134 663 1356 523 
Q 1578 384 1822 384 
Q 2178 384 2434 671 
Q 2691 959 2691 1453 
Q 2691 1928 2437 2201 
Q 2184 2475 1800 2475 
Q 1419 2475 1153 2201 
Q 888 1928 888 1484 
z
" transform="scale(0.015625)"/>
       </defs>
       <use xlink:href="#ArialMT-30"/>
       <use xlink:href="#ArialMT-2e" x="55.615234"/>
       <use xlink:href="#ArialMT-36" x="83.398438"/>
      </g>
     </g>
    </g>
    <g id="xtick_5">
     <g id="line2d_9">
      <path d="M 473.536193 284.4 
L 473.536193 7.2 
" clip-path="url(#p229495e34f)" style="fill: none; stroke: #ffffff; stroke-width: 0.8; stroke-linecap: round"/>
     </g>
     <g id="line2d_10"/>
     <g id="text_5">
      <!-- 0.8 -->
      <g style="fill: #262626" transform="translate(465.196193 296.489375) scale(0.12 -0.12)">
       <defs>
        <path id="ArialMT-38" d="M 1131 2484 
Q 781 2613 612 2850 
Q 444 3088 444 3419 
Q 444 3919 803 4259 
Q 1163 4600 1759 4600 
Q 2359 4600 2725 4251 
Q 3091 3903 3091 3403 
Q 3091 3084 2923 2848 
Q 2756 2613 2416 2484 
Q 2838 2347 3058 2040 
Q 3278 1734 3278 1309 
Q 3278 722 2862 322 
Q 2447 -78 1769 -78 
Q 1091 -78 675 323 
Q 259 725 259 1325 
Q 259 1772 486 2073 
Q 713 2375 1131 2484 
z
M 1019 3438 
Q 1019 3113 1228 2906 
Q 1438 2700 1772 2700 
Q 2097 2700 2305 2904 
Q 2513 3109 2513 3406 
Q 2513 3716 2298 3927 
Q 2084 4138 1766 4138 
Q 1444 4138 1231 3931 
Q 1019 3725 1019 3438 
z
M 838 1322 
Q 838 1081 952 856 
Q 1066 631 1291 507 
Q 1516 384 1775 384 
Q 2178 384 2440 643 
Q 2703 903 2703 1303 
Q 2703 1709 2433 1975 
Q 2163 2241 1756 2241 
Q 1359 2241 1098 1978 
Q 838 1716 838 1322 
z
" transform="scale(0.015625)"/>
       </defs>
       <use xlink:href="#ArialMT-30"/>
       <use xlink:href="#ArialMT-2e" x="55.615234"/>
       <use xlink:href="#ArialMT-38" x="83.398438"/>
      </g>
     </g>
    </g>
    <g id="xtick_6">
     <g id="line2d_11">
      <path d="M 574.990739 284.4 
L 574.990739 7.2 
" clip-path="url(#p229495e34f)" style="fill: none; stroke: #ffffff; stroke-width: 0.8; stroke-linecap: round"/>
     </g>
     <g id="line2d_12"/>
     <g id="text_6">
      <!-- 1.0 -->
      <g style="fill: #262626" transform="translate(566.650739 296.489375) scale(0.12 -0.12)">
       <defs>
        <path id="ArialMT-31" d="M 2384 0 
L 1822 0 
L 1822 3584 
Q 1619 3391 1289 3197 
Q 959 3003 697 2906 
L 697 3450 
Q 1169 3672 1522 3987 
Q 1875 4303 2022 4600 
L 2384 4600 
L 2384 0 
z
" transform="scale(0.015625)"/>
       </defs>
       <use xlink:href="#ArialMT-31"/>
       <use xlink:href="#ArialMT-2e" x="55.615234"/>
       <use xlink:href="#ArialMT-30" x="83.398438"/>
      </g>
     </g>
    </g>
    <g id="text_7">
     <!-- Depth -->
     <g style="fill: #262626" transform="translate(305.344688 311.46375) scale(0.12 -0.12)">
      <defs>
       <path id="ArialMT-44" d="M 494 0 
L 494 4581 
L 2072 4581 
Q 2606 4581 2888 4516 
Q 3281 4425 3559 4188 
Q 3922 3881 4101 3404 
Q 4281 2928 4281 2316 
Q 4281 1794 4159 1391 
Q 4038 988 3847 723 
Q 3656 459 3429 307 
Q 3203 156 2883 78 
Q 2563 0 2147 0 
L 494 0 
z
M 1100 541 
L 2078 541 
Q 2531 541 2789 625 
Q 3047 709 3200 863 
Q 3416 1078 3536 1442 
Q 3656 1806 3656 2325 
Q 3656 3044 3420 3430 
Q 3184 3816 2847 3947 
Q 2603 4041 2063 4041 
L 1100 4041 
L 1100 541 
z
" transform="scale(0.015625)"/>
       <path id="ArialMT-65" d="M 2694 1069 
L 3275 997 
Q 3138 488 2766 206 
Q 2394 -75 1816 -75 
Q 1088 -75 661 373 
Q 234 822 234 1631 
Q 234 2469 665 2931 
Q 1097 3394 1784 3394 
Q 2450 3394 2872 2941 
Q 3294 2488 3294 1666 
Q 3294 1616 3291 1516 
L 816 1516 
Q 847 969 1125 678 
Q 1403 388 1819 388 
Q 2128 388 2347 550 
Q 2566 713 2694 1069 
z
M 847 1978 
L 2700 1978 
Q 2663 2397 2488 2606 
Q 2219 2931 1791 2931 
Q 1403 2931 1139 2672 
Q 875 2413 847 1978 
z
" transform="scale(0.015625)"/>
       <path id="ArialMT-70" d="M 422 -1272 
L 422 3319 
L 934 3319 
L 934 2888 
Q 1116 3141 1344 3267 
Q 1572 3394 1897 3394 
Q 2322 3394 2647 3175 
Q 2972 2956 3137 2557 
Q 3303 2159 3303 1684 
Q 3303 1175 3120 767 
Q 2938 359 2589 142 
Q 2241 -75 1856 -75 
Q 1575 -75 1351 44 
Q 1128 163 984 344 
L 984 -1272 
L 422 -1272 
z
M 931 1641 
Q 931 1000 1190 694 
Q 1450 388 1819 388 
Q 2194 388 2461 705 
Q 2728 1022 2728 1688 
Q 2728 2322 2467 2637 
Q 2206 2953 1844 2953 
Q 1484 2953 1207 2617 
Q 931 2281 931 1641 
z
" transform="scale(0.015625)"/>
       <path id="ArialMT-74" d="M 1650 503 
L 1731 6 
Q 1494 -44 1306 -44 
Q 1000 -44 831 53 
Q 663 150 594 308 
Q 525 466 525 972 
L 525 2881 
L 113 2881 
L 113 3319 
L 525 3319 
L 525 4141 
L 1084 4478 
L 1084 3319 
L 1650 3319 
L 1650 2881 
L 1084 2881 
L 1084 941 
Q 1084 700 1114 631 
Q 1144 563 1211 522 
Q 1278 481 1403 481 
Q 1497 481 1650 503 
z
" transform="scale(0.015625)"/>
       <path id="ArialMT-68" d="M 422 0 
L 422 4581 
L 984 4581 
L 984 2938 
Q 1378 3394 1978 3394 
Q 2347 3394 2619 3248 
Q 2891 3103 3008 2847 
Q 3125 2591 3125 2103 
L 3125 0 
L 2563 0 
L 2563 2103 
Q 2563 2525 2380 2717 
Q 2197 2909 1863 2909 
Q 1613 2909 1392 2779 
Q 1172 2650 1078 2428 
Q 984 2206 984 1816 
L 984 0 
L 422 0 
z
" transform="scale(0.015625)"/>
      </defs>
      <use xlink:href="#ArialMT-44"/>
      <use xlink:href="#ArialMT-65" x="72.216797"/>
      <use xlink:href="#ArialMT-70" x="127.832031"/>
      <use xlink:href="#ArialMT-74" x="183.447266"/>
      <use xlink:href="#ArialMT-68" x="211.230469"/>
     </g>
    </g>
   </g>
   <g id="matplotlib.axis_2">
    <g id="ytick_1">
     <g id="line2d_13">
      <path d="M 42.354375 271.8 
L 600.354375 271.8 
" clip-path="url(#p229495e34f)" style="fill: none; stroke: #ffffff; stroke-width: 0.8; stroke-linecap: round"/>
     </g>
     <g id="line2d_14"/>
     <g id="text_8">
      <!-- 0.0 -->
      <g style="fill: #262626" transform="translate(22.174375 276.094687) scale(0.12 -0.12)">
       <use xlink:href="#ArialMT-30"/>
       <use xlink:href="#ArialMT-2e" x="55.615234"/>
       <use xlink:href="#ArialMT-30" x="83.398438"/>
      </g>
     </g>
    </g>
    <g id="ytick_2">
     <g id="line2d_15">
      <path d="M 42.354375 223.671545 
L 600.354375 223.671545 
" clip-path="url(#p229495e34f)" style="fill: none; stroke: #ffffff; stroke-width: 0.8; stroke-linecap: round"/>
     </g>
     <g id="line2d_16"/>
     <g id="text_9">
      <!-- 0.1 -->
      <g style="fill: #262626" transform="translate(22.174375 227.966233) scale(0.12 -0.12)">
       <use xlink:href="#ArialMT-30"/>
       <use xlink:href="#ArialMT-2e" x="55.615234"/>
       <use xlink:href="#ArialMT-31" x="83.398438"/>
      </g>
     </g>
    </g>
    <g id="ytick_3">
     <g id="line2d_17">
      <path d="M 42.354375 175.54309 
L 600.354375 175.54309 
" clip-path="url(#p229495e34f)" style="fill: none; stroke: #ffffff; stroke-width: 0.8; stroke-linecap: round"/>
     </g>
     <g id="line2d_18"/>
     <g id="text_10">
      <!-- 0.2 -->
      <g style="fill: #262626" transform="translate(22.174375 179.837778) scale(0.12 -0.12)">
       <use xlink:href="#ArialMT-30"/>
       <use xlink:href="#ArialMT-2e" x="55.615234"/>
       <use xlink:href="#ArialMT-32" x="83.398438"/>
      </g>
     </g>
    </g>
    <g id="ytick_4">
     <g id="line2d_19">
      <path d="M 42.354375 127.414636 
L 600.354375 127.414636 
" clip-path="url(#p229495e34f)" style="fill: none; stroke: #ffffff; stroke-width: 0.8; stroke-linecap: round"/>
     </g>
     <g id="line2d_20"/>
     <g id="text_11">
      <!-- 0.3 -->
      <g style="fill: #262626" transform="translate(22.174375 131.709323) scale(0.12 -0.12)">
       <defs>
        <path id="ArialMT-33" d="M 269 1209 
L 831 1284 
Q 928 806 1161 595 
Q 1394 384 1728 384 
Q 2125 384 2398 659 
Q 2672 934 2672 1341 
Q 2672 1728 2419 1979 
Q 2166 2231 1775 2231 
Q 1616 2231 1378 2169 
L 1441 2663 
Q 1497 2656 1531 2656 
Q 1891 2656 2178 2843 
Q 2466 3031 2466 3422 
Q 2466 3731 2256 3934 
Q 2047 4138 1716 4138 
Q 1388 4138 1169 3931 
Q 950 3725 888 3313 
L 325 3413 
Q 428 3978 793 4289 
Q 1159 4600 1703 4600 
Q 2078 4600 2393 4439 
Q 2709 4278 2876 4000 
Q 3044 3722 3044 3409 
Q 3044 3113 2884 2869 
Q 2725 2625 2413 2481 
Q 2819 2388 3044 2092 
Q 3269 1797 3269 1353 
Q 3269 753 2831 336 
Q 2394 -81 1725 -81 
Q 1122 -81 723 278 
Q 325 638 269 1209 
z
" transform="scale(0.015625)"/>
       </defs>
       <use xlink:href="#ArialMT-30"/>
       <use xlink:href="#ArialMT-2e" x="55.615234"/>
       <use xlink:href="#ArialMT-33" x="83.398438"/>
      </g>
     </g>
    </g>
    <g id="ytick_5">
     <g id="line2d_21">
      <path d="M 42.354375 79.286181 
L 600.354375 79.286181 
" clip-path="url(#p229495e34f)" style="fill: none; stroke: #ffffff; stroke-width: 0.8; stroke-linecap: round"/>
     </g>
     <g id="line2d_22"/>
     <g id="text_12">
      <!-- 0.4 -->
      <g style="fill: #262626" transform="translate(22.174375 83.580868) scale(0.12 -0.12)">
       <use xlink:href="#ArialMT-30"/>
       <use xlink:href="#ArialMT-2e" x="55.615234"/>
       <use xlink:href="#ArialMT-34" x="83.398438"/>
      </g>
     </g>
    </g>
    <g id="ytick_6">
     <g id="line2d_23">
      <path d="M 42.354375 31.157726 
L 600.354375 31.157726 
" clip-path="url(#p229495e34f)" style="fill: none; stroke: #ffffff; stroke-width: 0.8; stroke-linecap: round"/>
     </g>
     <g id="line2d_24"/>
     <g id="text_13">
      <!-- 0.5 -->
      <g style="fill: #262626" transform="translate(22.174375 35.452414) scale(0.12 -0.12)">
       <defs>
        <path id="ArialMT-35" d="M 266 1200 
L 856 1250 
Q 922 819 1161 601 
Q 1400 384 1738 384 
Q 2144 384 2425 690 
Q 2706 997 2706 1503 
Q 2706 1984 2436 2262 
Q 2166 2541 1728 2541 
Q 1456 2541 1237 2417 
Q 1019 2294 894 2097 
L 366 2166 
L 809 4519 
L 3088 4519 
L 3088 3981 
L 1259 3981 
L 1013 2750 
Q 1425 3038 1878 3038 
Q 2478 3038 2890 2622 
Q 3303 2206 3303 1553 
Q 3303 931 2941 478 
Q 2500 -78 1738 -78 
Q 1113 -78 717 272 
Q 322 622 266 1200 
z
" transform="scale(0.015625)"/>
       </defs>
       <use xlink:href="#ArialMT-30"/>
       <use xlink:href="#ArialMT-2e" x="55.615234"/>
       <use xlink:href="#ArialMT-35" x="83.398438"/>
      </g>
     </g>
    </g>
    <g id="text_14">
     <!-- Displaced Volume -->
     <g style="fill: #262626" transform="translate(15.789375 193.825312) rotate(-90) scale(0.12 -0.12)">
      <defs>
       <path id="ArialMT-69" d="M 425 3934 
L 425 4581 
L 988 4581 
L 988 3934 
L 425 3934 
z
M 425 0 
L 425 3319 
L 988 3319 
L 988 0 
L 425 0 
z
" transform="scale(0.015625)"/>
       <path id="ArialMT-73" d="M 197 991 
L 753 1078 
Q 800 744 1014 566 
Q 1228 388 1613 388 
Q 2000 388 2187 545 
Q 2375 703 2375 916 
Q 2375 1106 2209 1216 
Q 2094 1291 1634 1406 
Q 1016 1563 777 1677 
Q 538 1791 414 1992 
Q 291 2194 291 2438 
Q 291 2659 392 2848 
Q 494 3038 669 3163 
Q 800 3259 1026 3326 
Q 1253 3394 1513 3394 
Q 1903 3394 2198 3281 
Q 2494 3169 2634 2976 
Q 2775 2784 2828 2463 
L 2278 2388 
Q 2241 2644 2061 2787 
Q 1881 2931 1553 2931 
Q 1166 2931 1000 2803 
Q 834 2675 834 2503 
Q 834 2394 903 2306 
Q 972 2216 1119 2156 
Q 1203 2125 1616 2013 
Q 2213 1853 2448 1751 
Q 2684 1650 2818 1456 
Q 2953 1263 2953 975 
Q 2953 694 2789 445 
Q 2625 197 2315 61 
Q 2006 -75 1616 -75 
Q 969 -75 630 194 
Q 291 463 197 991 
z
" transform="scale(0.015625)"/>
       <path id="ArialMT-6c" d="M 409 0 
L 409 4581 
L 972 4581 
L 972 0 
L 409 0 
z
" transform="scale(0.015625)"/>
       <path id="ArialMT-61" d="M 2588 409 
Q 2275 144 1986 34 
Q 1697 -75 1366 -75 
Q 819 -75 525 192 
Q 231 459 231 875 
Q 231 1119 342 1320 
Q 453 1522 633 1644 
Q 813 1766 1038 1828 
Q 1203 1872 1538 1913 
Q 2219 1994 2541 2106 
Q 2544 2222 2544 2253 
Q 2544 2597 2384 2738 
Q 2169 2928 1744 2928 
Q 1347 2928 1158 2789 
Q 969 2650 878 2297 
L 328 2372 
Q 403 2725 575 2942 
Q 747 3159 1072 3276 
Q 1397 3394 1825 3394 
Q 2250 3394 2515 3294 
Q 2781 3194 2906 3042 
Q 3031 2891 3081 2659 
Q 3109 2516 3109 2141 
L 3109 1391 
Q 3109 606 3145 398 
Q 3181 191 3288 0 
L 2700 0 
Q 2613 175 2588 409 
z
M 2541 1666 
Q 2234 1541 1622 1453 
Q 1275 1403 1131 1340 
Q 988 1278 909 1158 
Q 831 1038 831 891 
Q 831 666 1001 516 
Q 1172 366 1500 366 
Q 1825 366 2078 508 
Q 2331 650 2450 897 
Q 2541 1088 2541 1459 
L 2541 1666 
z
" transform="scale(0.015625)"/>
       <path id="ArialMT-63" d="M 2588 1216 
L 3141 1144 
Q 3050 572 2676 248 
Q 2303 -75 1759 -75 
Q 1078 -75 664 370 
Q 250 816 250 1647 
Q 250 2184 428 2587 
Q 606 2991 970 3192 
Q 1334 3394 1763 3394 
Q 2303 3394 2647 3120 
Q 2991 2847 3088 2344 
L 2541 2259 
Q 2463 2594 2264 2762 
Q 2066 2931 1784 2931 
Q 1359 2931 1093 2626 
Q 828 2322 828 1663 
Q 828 994 1084 691 
Q 1341 388 1753 388 
Q 2084 388 2306 591 
Q 2528 794 2588 1216 
z
" transform="scale(0.015625)"/>
       <path id="ArialMT-64" d="M 2575 0 
L 2575 419 
Q 2259 -75 1647 -75 
Q 1250 -75 917 144 
Q 584 363 401 755 
Q 219 1147 219 1656 
Q 219 2153 384 2558 
Q 550 2963 881 3178 
Q 1213 3394 1622 3394 
Q 1922 3394 2156 3267 
Q 2391 3141 2538 2938 
L 2538 4581 
L 3097 4581 
L 3097 0 
L 2575 0 
z
M 797 1656 
Q 797 1019 1065 703 
Q 1334 388 1700 388 
Q 2069 388 2326 689 
Q 2584 991 2584 1609 
Q 2584 2291 2321 2609 
Q 2059 2928 1675 2928 
Q 1300 2928 1048 2622 
Q 797 2316 797 1656 
z
" transform="scale(0.015625)"/>
       <path id="ArialMT-20" transform="scale(0.015625)"/>
       <path id="ArialMT-56" d="M 1803 0 
L 28 4581 
L 684 4581 
L 1875 1253 
Q 2019 853 2116 503 
Q 2222 878 2363 1253 
L 3600 4581 
L 4219 4581 
L 2425 0 
L 1803 0 
z
" transform="scale(0.015625)"/>
       <path id="ArialMT-6f" d="M 213 1659 
Q 213 2581 725 3025 
Q 1153 3394 1769 3394 
Q 2453 3394 2887 2945 
Q 3322 2497 3322 1706 
Q 3322 1066 3130 698 
Q 2938 331 2570 128 
Q 2203 -75 1769 -75 
Q 1072 -75 642 372 
Q 213 819 213 1659 
z
M 791 1659 
Q 791 1022 1069 705 
Q 1347 388 1769 388 
Q 2188 388 2466 706 
Q 2744 1025 2744 1678 
Q 2744 2294 2464 2611 
Q 2184 2928 1769 2928 
Q 1347 2928 1069 2612 
Q 791 2297 791 1659 
z
" transform="scale(0.015625)"/>
       <path id="ArialMT-75" d="M 2597 0 
L 2597 488 
Q 2209 -75 1544 -75 
Q 1250 -75 995 37 
Q 741 150 617 320 
Q 494 491 444 738 
Q 409 903 409 1263 
L 409 3319 
L 972 3319 
L 972 1478 
Q 972 1038 1006 884 
Q 1059 663 1231 536 
Q 1403 409 1656 409 
Q 1909 409 2131 539 
Q 2353 669 2445 892 
Q 2538 1116 2538 1541 
L 2538 3319 
L 3100 3319 
L 3100 0 
L 2597 0 
z
" transform="scale(0.015625)"/>
       <path id="ArialMT-6d" d="M 422 0 
L 422 3319 
L 925 3319 
L 925 2853 
Q 1081 3097 1340 3245 
Q 1600 3394 1931 3394 
Q 2300 3394 2536 3241 
Q 2772 3088 2869 2813 
Q 3263 3394 3894 3394 
Q 4388 3394 4653 3120 
Q 4919 2847 4919 2278 
L 4919 0 
L 4359 0 
L 4359 2091 
Q 4359 2428 4304 2576 
Q 4250 2725 4106 2815 
Q 3963 2906 3769 2906 
Q 3419 2906 3187 2673 
Q 2956 2441 2956 1928 
L 2956 0 
L 2394 0 
L 2394 2156 
Q 2394 2531 2256 2718 
Q 2119 2906 1806 2906 
Q 1569 2906 1367 2781 
Q 1166 2656 1075 2415 
Q 984 2175 984 1722 
L 984 0 
L 422 0 
z
" transform="scale(0.015625)"/>
      </defs>
      <use xlink:href="#ArialMT-44"/>
      <use xlink:href="#ArialMT-69" x="72.216797"/>
      <use xlink:href="#ArialMT-73" x="94.433594"/>
      <use xlink:href="#ArialMT-70" x="144.433594"/>
      <use xlink:href="#ArialMT-6c" x="200.048828"/>
      <use xlink:href="#ArialMT-61" x="222.265625"/>
      <use xlink:href="#ArialMT-63" x="277.880859"/>
      <use xlink:href="#ArialMT-65" x="327.880859"/>
      <use xlink:href="#ArialMT-64" x="383.496094"/>
      <use xlink:href="#ArialMT-20" x="439.111328"/>
      <use xlink:href="#ArialMT-56" x="466.894531"/>
      <use xlink:href="#ArialMT-6f" x="528.09375"/>
      <use xlink:href="#ArialMT-6c" x="583.708984"/>
      <use xlink:href="#ArialMT-75" x="605.925781"/>
      <use xlink:href="#ArialMT-6d" x="661.541016"/>
      <use xlink:href="#ArialMT-65" x="744.841797"/>
     </g>
    </g>
   </g>
   <g id="patch_3">
    <path d="M 539.481648 55.221953 
L 564.845284 55.221953 
L 564.845284 16.71919 
L 539.481648 16.71919 
L 539.481648 55.221953 
z
" clip-path="url(#p229495e34f)" style="fill: none; stroke: #808080; stroke-linejoin: miter"/>
   </g>
   <g id="line2d_25">
    <path d="M 68.731894 271.8 
L 81.921014 271.705267 
L 90.037392 271.432371 
L 97.139226 270.957935 
L 103.226509 270.319663 
L 108.299246 269.591586 
L 114.386534 268.484743 
L 121.488362 266.946168 
L 129.604726 264.953001 
L 137.72114 262.714031 
L 145.837504 260.23068 
L 153.953868 257.504376 
L 162.070282 254.53653 
L 170.186646 251.328586 
L 178.303009 247.881944 
L 186.419424 244.198047 
L 194.535787 240.278745 
L 203.666696 235.617124 
L 213.812202 230.170287 
L 223.957656 224.471065 
L 235.117707 217.946136 
L 247.292252 210.567707 
L 260.481343 202.314977 
L 274.68498 193.166624 
L 290.917656 182.435711 
L 309.179525 170.090858 
L 356.863111 137.673216 
L 373.095838 127.027972 
L 387.299424 117.971496 
L 400.488565 109.818199 
L 412.663162 102.547385 
L 423.823162 96.139851 
L 433.968616 90.563063 
L 444.114071 85.253628 
L 453.24503 80.734414 
L 461.361394 76.961865 
L 469.477808 73.426156 
L 477.594172 70.128491 
L 485.710536 67.070409 
L 493.82695 64.253354 
L 501.943314 61.678674 
L 510.059677 59.347861 
L 518.176092 57.262359 
L 526.292455 55.423515 
L 532.379728 54.240903 
L 538.467052 53.300762 
L 544.554274 52.622102 
L 550.641597 52.167144 
L 557.743415 51.859411 
L 566.874375 51.707469 
L 574.990739 51.689806 
L 574.990739 51.689806 
" clip-path="url(#p229495e34f)" style="fill: none; stroke-dasharray: 5.55,2.4; stroke-dashoffset: 0; stroke: #1f77b4; stroke-width: 1.5"/>
   </g>
   <g id="line2d_26">
    <path d="M 68.731894 271.8 
L 76.848276 271.700101 
L 82.935559 271.366786 
L 90.037392 270.734534 
L 96.124675 269.987925 
L 102.211963 269.039378 
L 108.299246 267.885715 
L 115.40108 266.30889 
L 122.502908 264.504386 
L 129.604726 262.476089 
L 136.706595 260.222012 
L 143.808413 257.742222 
L 151.924777 254.651899 
L 160.041191 251.311106 
L 168.157555 247.73121 
L 176.273918 243.921775 
L 184.390333 239.889651 
L 193.521242 235.093693 
L 202.652151 230.047208 
L 212.797656 224.177433 
L 222.943111 218.056783 
L 234.103162 211.057318 
L 245.263162 203.801135 
L 257.437707 195.619731 
L 271.641343 185.798302 
L 288.888565 173.585466 
L 310.19402 158.202264 
L 356.863111 124.370992 
L 374.110384 112.207055 
L 388.31402 102.441069 
L 400.488565 94.326082 
L 411.648565 87.137616 
L 422.808565 80.212172 
L 432.954071 74.164495 
L 443.099525 68.374883 
L 452.230485 63.408267 
L 461.361394 58.7027 
L 469.477808 54.753567 
L 477.594172 51.029051 
L 485.710536 47.537716 
L 493.82695 44.289142 
L 501.943314 41.298151 
L 509.045132 38.914252 
L 516.14695 36.757279 
L 523.248819 34.825066 
L 530.350637 33.116458 
L 537.452455 31.643198 
L 543.539728 30.590292 
L 549.627052 29.74429 
L 556.72887 29.003785 
L 563.830688 28.512249 
L 569.917961 28.346976 
L 574.990739 28.329891 
L 574.990739 28.329891 
" clip-path="url(#p229495e34f)" style="fill: none; stroke-dasharray: 5.55,2.4; stroke-dashoffset: 0; stroke: #ff7f0e; stroke-width: 1.5"/>
   </g>
   <g id="line2d_27">
    <path d="M 68.731894 271.8 
L 73.80463 271.716944 
L 79.891918 271.423367 
L 85.979201 270.924452 
L 92.066488 270.219516 
L 99.168317 269.150652 
L 105.255605 268.025432 
L 112.357438 266.478403 
L 119.459272 264.688371 
L 126.56109 262.661311 
L 133.662959 260.408524 
L 140.764777 257.936267 
L 148.88114 254.852561 
L 156.997504 251.507551 
L 165.113918 247.911129 
L 173.230282 244.075892 
L 182.361191 239.4935 
L 191.492151 234.641045 
L 200.62306 229.537571 
L 210.768565 223.596369 
L 220.91402 217.389675 
L 232.07402 210.285289 
L 244.248616 202.245912 
L 256.423162 193.938604 
L 270.626798 183.968073 
L 286.859525 172.288644 
L 308.16498 156.651324 
L 359.906747 118.5397 
L 376.139474 106.929577 
L 390.34306 97.037062 
L 402.517656 88.815278 
L 414.692202 80.87288 
L 425.852252 73.869468 
L 435.997707 67.766876 
L 446.143212 61.93722 
L 455.274121 56.942353 
L 464.40503 52.208342 
L 472.521445 48.23144 
L 480.637808 44.48387 
L 488.754172 40.980551 
L 496.870586 37.731977 
L 504.98695 34.749986 
L 512.088768 32.371381 
L 519.190586 30.21412 
L 526.292455 28.286912 
L 533.394274 26.601068 
L 540.496092 25.160006 
L 547.597961 23.978838 
L 553.685233 23.174707 
L 559.772506 22.573631 
L 565.859779 22.174261 
L 571.947102 21.987234 
L 574.990739 21.972122 
L 574.990739 21.972122 
" clip-path="url(#p229495e34f)" style="fill: none; stroke-dasharray: 5.55,2.4; stroke-dashoffset: 0; stroke: #2ca02c; stroke-width: 1.5"/>
   </g>
   <g id="line2d_28">
    <path d="M 68.731894 271.8 
L 74.81918 271.660988 
L 80.906463 271.312621 
L 86.993751 270.757611 
L 93.081034 270.001183 
L 99.168317 269.048588 
L 106.27015 267.696395 
L 113.371984 266.092783 
L 120.473817 264.24622 
L 127.575635 262.165232 
L 134.677504 259.857771 
L 141.779322 257.33223 
L 149.895686 254.189731 
L 158.01205 250.785634 
L 166.128464 247.132242 
L 174.244828 243.242072 
L 183.375787 238.597888 
L 192.506696 233.68711 
L 201.637606 228.52773 
L 211.783111 222.524211 
L 221.928565 216.259667 
L 233.088565 209.095843 
L 245.263162 200.991011 
L 258.452303 191.917305 
L 272.655889 181.863608 
L 288.888565 170.098944 
L 311.208565 153.618558 
L 356.863111 119.822805 
L 374.110384 107.383621 
L 388.31402 97.407362 
L 401.503111 88.422598 
L 412.663162 81.069869 
L 423.823162 73.980933 
L 433.968616 67.792143 
L 444.114071 61.871718 
L 453.24503 56.793444 
L 462.37594 51.969625 
L 471.506849 47.417876 
L 479.623263 43.614958 
L 487.739627 40.054175 
L 495.85599 36.746306 
L 503.972405 33.704828 
L 511.074223 31.272416 
L 518.176092 29.060529 
L 525.27791 27.078647 
L 532.379728 25.335434 
L 539.481546 23.838447 
L 546.583415 22.596829 
L 552.670688 21.741683 
L 558.757961 21.085355 
L 564.845233 20.632611 
L 570.932557 20.390187 
L 574.990739 20.346006 
L 574.990739 20.346006 
" clip-path="url(#p229495e34f)" style="fill: none; stroke-dasharray: 5.55,2.4; stroke-dashoffset: 0; stroke: #d62728; stroke-width: 1.5"/>
   </g>
   <g id="line2d_29">
    <path d="M 67.718011 271.8 
L 73.817483 271.691575 
L 79.916955 271.369806 
L 86.016426 270.839949 
L 92.115898 270.107262 
L 98.21537 269.177001 
L 105.33142 267.848998 
L 112.44747 266.267579 
L 119.563521 264.44109 
L 126.679571 262.377881 
L 133.795621 260.086299 
L 140.911671 257.574692 
L 148.027722 254.851407 
L 156.160351 251.490593 
L 164.292979 247.876666 
L 172.425608 244.022088 
L 180.558237 239.93932 
L 189.707445 235.088961 
L 198.856652 229.983312 
L 209.022438 224.032533 
L 219.188225 217.812822 
L 230.370589 210.689571 
L 241.552954 203.302754 
L 253.751897 194.981878 
L 266.967419 185.705913 
L 282.216098 174.73285 
L 301.531092 160.541466 
L 367.608702 111.715154 
L 382.857381 100.868586 
L 396.072903 91.733257 
L 408.271846 83.567753 
L 419.454211 76.344911 
L 429.619997 70.024442 
L 439.785783 63.96317 
L 448.934991 58.749753 
L 458.084198 53.783742 
L 467.233406 49.082878 
L 475.366035 45.141269 
L 483.498664 41.435638 
L 491.631292 37.978446 
L 499.763921 34.782155 
L 506.879972 32.209217 
L 513.996022 29.853918 
L 521.112072 27.724608 
L 528.228122 25.829633 
L 535.344173 24.177342 
L 542.460223 22.776083 
L 549.576273 21.634203 
L 555.675745 20.868222 
L 561.775217 20.304195 
L 567.874688 19.947379 
L 573.97416 19.803032 
L 574.990739 19.8 
L 574.990739 19.8 
" clip-path="url(#p229495e34f)" style="fill: none; stroke: #9467bd; stroke-width: 1.5; stroke-linecap: round"/>
   </g>
   <g id="patch_4">
    <path d="M 42.354375 284.4 
L 42.354375 7.2 
" style="fill: none"/>
   </g>
   <g id="patch_5">
    <path d="M 600.354375 284.4 
L 600.354375 7.2 
" style="fill: none"/>
   </g>
   <g id="patch_6">
    <path d="M 42.354375 284.4 
L 600.354375 284.4 
" style="fill: none"/>
   </g>
   <g id="patch_7">
    <path d="M 42.354375 7.2 
L 600.354375 7.2 
" style="fill: none"/>
   </g>
   <g id="legend_1">
    <g id="line2d_30">
     <path d="M 53.154375 22.535625 
L 65.154375 22.535625 
L 77.154375 22.535625 
" style="fill: none; stroke-dasharray: 5.55,2.4; stroke-dashoffset: 0; stroke: #1f77b4; stroke-width: 1.5"/>
    </g>
    <g id="text_15">
     <!-- Simulation: 80 triangles -->
     <g style="fill: #262626" transform="translate(86.754375 26.735625) scale(0.12 -0.12)">
      <defs>
       <path id="ArialMT-53" d="M 288 1472 
L 859 1522 
Q 900 1178 1048 958 
Q 1197 738 1509 602 
Q 1822 466 2213 466 
Q 2559 466 2825 569 
Q 3091 672 3220 851 
Q 3350 1031 3350 1244 
Q 3350 1459 3225 1620 
Q 3100 1781 2813 1891 
Q 2628 1963 1997 2114 
Q 1366 2266 1113 2400 
Q 784 2572 623 2826 
Q 463 3081 463 3397 
Q 463 3744 659 4045 
Q 856 4347 1234 4503 
Q 1613 4659 2075 4659 
Q 2584 4659 2973 4495 
Q 3363 4331 3572 4012 
Q 3781 3694 3797 3291 
L 3216 3247 
Q 3169 3681 2898 3903 
Q 2628 4125 2100 4125 
Q 1550 4125 1298 3923 
Q 1047 3722 1047 3438 
Q 1047 3191 1225 3031 
Q 1400 2872 2139 2705 
Q 2878 2538 3153 2413 
Q 3553 2228 3743 1945 
Q 3934 1663 3934 1294 
Q 3934 928 3725 604 
Q 3516 281 3123 101 
Q 2731 -78 2241 -78 
Q 1619 -78 1198 103 
Q 778 284 539 648 
Q 300 1013 288 1472 
z
" transform="scale(0.015625)"/>
       <path id="ArialMT-6e" d="M 422 0 
L 422 3319 
L 928 3319 
L 928 2847 
Q 1294 3394 1984 3394 
Q 2284 3394 2536 3286 
Q 2788 3178 2913 3003 
Q 3038 2828 3088 2588 
Q 3119 2431 3119 2041 
L 3119 0 
L 2556 0 
L 2556 2019 
Q 2556 2363 2490 2533 
Q 2425 2703 2258 2804 
Q 2091 2906 1866 2906 
Q 1506 2906 1245 2678 
Q 984 2450 984 1813 
L 984 0 
L 422 0 
z
" transform="scale(0.015625)"/>
       <path id="ArialMT-3a" d="M 578 2678 
L 578 3319 
L 1219 3319 
L 1219 2678 
L 578 2678 
z
M 578 0 
L 578 641 
L 1219 641 
L 1219 0 
L 578 0 
z
" transform="scale(0.015625)"/>
       <path id="ArialMT-72" d="M 416 0 
L 416 3319 
L 922 3319 
L 922 2816 
Q 1116 3169 1280 3281 
Q 1444 3394 1641 3394 
Q 1925 3394 2219 3213 
L 2025 2691 
Q 1819 2813 1613 2813 
Q 1428 2813 1281 2702 
Q 1134 2591 1072 2394 
Q 978 2094 978 1738 
L 978 0 
L 416 0 
z
" transform="scale(0.015625)"/>
       <path id="ArialMT-67" d="M 319 -275 
L 866 -356 
Q 900 -609 1056 -725 
Q 1266 -881 1628 -881 
Q 2019 -881 2231 -725 
Q 2444 -569 2519 -288 
Q 2563 -116 2559 434 
Q 2191 0 1641 0 
Q 956 0 581 494 
Q 206 988 206 1678 
Q 206 2153 378 2554 
Q 550 2956 876 3175 
Q 1203 3394 1644 3394 
Q 2231 3394 2613 2919 
L 2613 3319 
L 3131 3319 
L 3131 450 
Q 3131 -325 2973 -648 
Q 2816 -972 2473 -1159 
Q 2131 -1347 1631 -1347 
Q 1038 -1347 672 -1080 
Q 306 -813 319 -275 
z
M 784 1719 
Q 784 1066 1043 766 
Q 1303 466 1694 466 
Q 2081 466 2343 764 
Q 2606 1063 2606 1700 
Q 2606 2309 2336 2618 
Q 2066 2928 1684 2928 
Q 1309 2928 1046 2623 
Q 784 2319 784 1719 
z
" transform="scale(0.015625)"/>
      </defs>
      <use xlink:href="#ArialMT-53"/>
      <use xlink:href="#ArialMT-69" x="66.699219"/>
      <use xlink:href="#ArialMT-6d" x="88.916016"/>
      <use xlink:href="#ArialMT-75" x="172.216797"/>
      <use xlink:href="#ArialMT-6c" x="227.832031"/>
      <use xlink:href="#ArialMT-61" x="250.048828"/>
      <use xlink:href="#ArialMT-74" x="305.664062"/>
      <use xlink:href="#ArialMT-69" x="333.447266"/>
      <use xlink:href="#ArialMT-6f" x="355.664062"/>
      <use xlink:href="#ArialMT-6e" x="411.279297"/>
      <use xlink:href="#ArialMT-3a" x="466.894531"/>
      <use xlink:href="#ArialMT-20" x="494.677734"/>
      <use xlink:href="#ArialMT-38" x="522.460938"/>
      <use xlink:href="#ArialMT-30" x="578.076172"/>
      <use xlink:href="#ArialMT-20" x="633.691406"/>
      <use xlink:href="#ArialMT-74" x="661.474609"/>
      <use xlink:href="#ArialMT-72" x="689.257812"/>
      <use xlink:href="#ArialMT-69" x="722.558594"/>
      <use xlink:href="#ArialMT-61" x="744.775391"/>
      <use xlink:href="#ArialMT-6e" x="800.390625"/>
      <use xlink:href="#ArialMT-67" x="856.005859"/>
      <use xlink:href="#ArialMT-6c" x="911.621094"/>
      <use xlink:href="#ArialMT-65" x="933.837891"/>
      <use xlink:href="#ArialMT-73" x="989.453125"/>
     </g>
    </g>
    <g id="line2d_31">
     <path d="M 53.154375 39.796875 
L 65.154375 39.796875 
L 77.154375 39.796875 
" style="fill: none; stroke-dasharray: 5.55,2.4; stroke-dashoffset: 0; stroke: #ff7f0e; stroke-width: 1.5"/>
    </g>
    <g id="text_16">
     <!-- Simulation: 320 triangles -->
     <g style="fill: #262626" transform="translate(86.754375 43.996875) scale(0.12 -0.12)">
      <use xlink:href="#ArialMT-53"/>
      <use xlink:href="#ArialMT-69" x="66.699219"/>
      <use xlink:href="#ArialMT-6d" x="88.916016"/>
      <use xlink:href="#ArialMT-75" x="172.216797"/>
      <use xlink:href="#ArialMT-6c" x="227.832031"/>
      <use xlink:href="#ArialMT-61" x="250.048828"/>
      <use xlink:href="#ArialMT-74" x="305.664062"/>
      <use xlink:href="#ArialMT-69" x="333.447266"/>
      <use xlink:href="#ArialMT-6f" x="355.664062"/>
      <use xlink:href="#ArialMT-6e" x="411.279297"/>
      <use xlink:href="#ArialMT-3a" x="466.894531"/>
      <use xlink:href="#ArialMT-20" x="494.677734"/>
      <use xlink:href="#ArialMT-33" x="522.460938"/>
      <use xlink:href="#ArialMT-32" x="578.076172"/>
      <use xlink:href="#ArialMT-30" x="633.691406"/>
      <use xlink:href="#ArialMT-20" x="689.306641"/>
      <use xlink:href="#ArialMT-74" x="717.089844"/>
      <use xlink:href="#ArialMT-72" x="744.873047"/>
      <use xlink:href="#ArialMT-69" x="778.173828"/>
      <use xlink:href="#ArialMT-61" x="800.390625"/>
      <use xlink:href="#ArialMT-6e" x="856.005859"/>
      <use xlink:href="#ArialMT-67" x="911.621094"/>
      <use xlink:href="#ArialMT-6c" x="967.236328"/>
      <use xlink:href="#ArialMT-65" x="989.453125"/>
      <use xlink:href="#ArialMT-73" x="1045.068359"/>
     </g>
    </g>
    <g id="line2d_32">
     <path d="M 53.154375 57.058125 
L 65.154375 57.058125 
L 77.154375 57.058125 
" style="fill: none; stroke-dasharray: 5.55,2.4; stroke-dashoffset: 0; stroke: #2ca02c; stroke-width: 1.5"/>
    </g>
    <g id="text_17">
     <!-- Simulation: 1280 triangles -->
     <g style="fill: #262626" transform="translate(86.754375 61.258125) scale(0.12 -0.12)">
      <use xlink:href="#ArialMT-53"/>
      <use xlink:href="#ArialMT-69" x="66.699219"/>
      <use xlink:href="#ArialMT-6d" x="88.916016"/>
      <use xlink:href="#ArialMT-75" x="172.216797"/>
      <use xlink:href="#ArialMT-6c" x="227.832031"/>
      <use xlink:href="#ArialMT-61" x="250.048828"/>
      <use xlink:href="#ArialMT-74" x="305.664062"/>
      <use xlink:href="#ArialMT-69" x="333.447266"/>
      <use xlink:href="#ArialMT-6f" x="355.664062"/>
      <use xlink:href="#ArialMT-6e" x="411.279297"/>
      <use xlink:href="#ArialMT-3a" x="466.894531"/>
      <use xlink:href="#ArialMT-20" x="494.677734"/>
      <use xlink:href="#ArialMT-31" x="522.460938"/>
      <use xlink:href="#ArialMT-32" x="578.076172"/>
      <use xlink:href="#ArialMT-38" x="633.691406"/>
      <use xlink:href="#ArialMT-30" x="689.306641"/>
      <use xlink:href="#ArialMT-20" x="744.921875"/>
      <use xlink:href="#ArialMT-74" x="772.705078"/>
      <use xlink:href="#ArialMT-72" x="800.488281"/>
      <use xlink:href="#ArialMT-69" x="833.789062"/>
      <use xlink:href="#ArialMT-61" x="856.005859"/>
      <use xlink:href="#ArialMT-6e" x="911.621094"/>
      <use xlink:href="#ArialMT-67" x="967.236328"/>
      <use xlink:href="#ArialMT-6c" x="1022.851562"/>
      <use xlink:href="#ArialMT-65" x="1045.068359"/>
      <use xlink:href="#ArialMT-73" x="1100.683594"/>
     </g>
    </g>
    <g id="line2d_33">
     <path d="M 53.154375 74.319375 
L 65.154375 74.319375 
L 77.154375 74.319375 
" style="fill: none; stroke-dasharray: 5.55,2.4; stroke-dashoffset: 0; stroke: #d62728; stroke-width: 1.5"/>
    </g>
    <g id="text_18">
     <!-- Simulation: 5120 triangles -->
     <g style="fill: #262626" transform="translate(86.754375 78.519375) scale(0.12 -0.12)">
      <use xlink:href="#ArialMT-53"/>
      <use xlink:href="#ArialMT-69" x="66.699219"/>
      <use xlink:href="#ArialMT-6d" x="88.916016"/>
      <use xlink:href="#ArialMT-75" x="172.216797"/>
      <use xlink:href="#ArialMT-6c" x="227.832031"/>
      <use xlink:href="#ArialMT-61" x="250.048828"/>
      <use xlink:href="#ArialMT-74" x="305.664062"/>
      <use xlink:href="#ArialMT-69" x="333.447266"/>
      <use xlink:href="#ArialMT-6f" x="355.664062"/>
      <use xlink:href="#ArialMT-6e" x="411.279297"/>
      <use xlink:href="#ArialMT-3a" x="466.894531"/>
      <use xlink:href="#ArialMT-20" x="494.677734"/>
      <use xlink:href="#ArialMT-35" x="522.460938"/>
      <use xlink:href="#ArialMT-31" x="578.076172"/>
      <use xlink:href="#ArialMT-32" x="633.691406"/>
      <use xlink:href="#ArialMT-30" x="689.306641"/>
      <use xlink:href="#ArialMT-20" x="744.921875"/>
      <use xlink:href="#ArialMT-74" x="772.705078"/>
      <use xlink:href="#ArialMT-72" x="800.488281"/>
      <use xlink:href="#ArialMT-69" x="833.789062"/>
      <use xlink:href="#ArialMT-61" x="856.005859"/>
      <use xlink:href="#ArialMT-6e" x="911.621094"/>
      <use xlink:href="#ArialMT-67" x="967.236328"/>
      <use xlink:href="#ArialMT-6c" x="1022.851562"/>
      <use xlink:href="#ArialMT-65" x="1045.068359"/>
      <use xlink:href="#ArialMT-73" x="1100.683594"/>
     </g>
    </g>
    <g id="line2d_34">
     <path d="M 53.154375 91.434375 
L 65.154375 91.434375 
L 77.154375 91.434375 
" style="fill: none; stroke: #9467bd; stroke-width: 1.5; stroke-linecap: round"/>
    </g>
    <g id="text_19">
     <!-- Analytic -->
     <g style="fill: #262626" transform="translate(86.754375 95.634375) scale(0.12 -0.12)">
      <defs>
       <path id="ArialMT-41" d="M -9 0 
L 1750 4581 
L 2403 4581 
L 4278 0 
L 3588 0 
L 3053 1388 
L 1138 1388 
L 634 0 
L -9 0 
z
M 1313 1881 
L 2866 1881 
L 2388 3150 
Q 2169 3728 2063 4100 
Q 1975 3659 1816 3225 
L 1313 1881 
z
" transform="scale(0.015625)"/>
       <path id="ArialMT-79" d="M 397 -1278 
L 334 -750 
Q 519 -800 656 -800 
Q 844 -800 956 -737 
Q 1069 -675 1141 -563 
Q 1194 -478 1313 -144 
Q 1328 -97 1363 -6 
L 103 3319 
L 709 3319 
L 1400 1397 
Q 1534 1031 1641 628 
Q 1738 1016 1872 1384 
L 2581 3319 
L 3144 3319 
L 1881 -56 
Q 1678 -603 1566 -809 
Q 1416 -1088 1222 -1217 
Q 1028 -1347 759 -1347 
Q 597 -1347 397 -1278 
z
" transform="scale(0.015625)"/>
      </defs>
      <use xlink:href="#ArialMT-41"/>
      <use xlink:href="#ArialMT-6e" x="66.699219"/>
      <use xlink:href="#ArialMT-61" x="122.314453"/>
      <use xlink:href="#ArialMT-6c" x="177.929688"/>
      <use xlink:href="#ArialMT-79" x="200.146484"/>
      <use xlink:href="#ArialMT-74" x="250.146484"/>
      <use xlink:href="#ArialMT-69" x="277.929688"/>
      <use xlink:href="#ArialMT-63" x="300.146484"/>
     </g>
    </g>
   </g>
  </g>
  <g id="axes_2">
   <g id="patch_8">
    <path d="M 634.254375 267.312 
L 690.054375 267.312 
L 690.054375 17.832 
L 634.254375 17.832 
z
" style="fill: #eaeaf2"/>
   </g>
   <g id="matplotlib.axis_3">
    <g id="xtick_7">
     <g id="line2d_35">
      <path d="M 634.254375 267.312 
L 634.254375 17.832 
" clip-path="url(#p15ab9c34d6)" style="fill: none; stroke: #ffffff; stroke-width: 0.8; stroke-linecap: round"/>
     </g>
     <g id="line2d_36">
      <defs>
       <path id="m7a8d7f5ca1" d="M 0 0 
L 0 2 
" style="stroke: #262626; stroke-width: 0.8"/>
      </defs>
      <g>
       <use xlink:href="#m7a8d7f5ca1" x="634.254375" y="267.312" style="fill: #262626; stroke: #262626; stroke-width: 0.8"/>
      </g>
     </g>
     <g id="text_20">
      <!-- 0.93 -->
      <g style="fill: #262626" transform="translate(622.577813 281.401375) scale(0.12 -0.12)">
       <defs>
        <path id="ArialMT-39" d="M 350 1059 
L 891 1109 
Q 959 728 1153 556 
Q 1347 384 1650 384 
Q 1909 384 2104 503 
Q 2300 622 2425 820 
Q 2550 1019 2634 1356 
Q 2719 1694 2719 2044 
Q 2719 2081 2716 2156 
Q 2547 1888 2255 1720 
Q 1963 1553 1622 1553 
Q 1053 1553 659 1965 
Q 266 2378 266 3053 
Q 266 3750 677 4175 
Q 1088 4600 1706 4600 
Q 2153 4600 2523 4359 
Q 2894 4119 3086 3673 
Q 3278 3228 3278 2384 
Q 3278 1506 3087 986 
Q 2897 466 2520 194 
Q 2144 -78 1638 -78 
Q 1100 -78 759 220 
Q 419 519 350 1059 
z
M 2653 3081 
Q 2653 3566 2395 3850 
Q 2138 4134 1775 4134 
Q 1400 4134 1122 3828 
Q 844 3522 844 3034 
Q 844 2597 1108 2323 
Q 1372 2050 1759 2050 
Q 2150 2050 2401 2323 
Q 2653 2597 2653 3081 
z
" transform="scale(0.015625)"/>
       </defs>
       <use xlink:href="#ArialMT-30"/>
       <use xlink:href="#ArialMT-2e" x="55.615234"/>
       <use xlink:href="#ArialMT-39" x="83.398438"/>
       <use xlink:href="#ArialMT-33" x="139.013672"/>
      </g>
     </g>
    </g>
    <g id="xtick_8">
     <g id="line2d_37">
      <path d="M 690.054375 267.312 
L 690.054375 17.832 
" clip-path="url(#p15ab9c34d6)" style="fill: none; stroke: #ffffff; stroke-width: 0.8; stroke-linecap: round"/>
     </g>
     <g id="line2d_38">
      <g>
       <use xlink:href="#m7a8d7f5ca1" x="690.054375" y="267.312" style="fill: #262626; stroke: #262626; stroke-width: 0.8"/>
      </g>
     </g>
     <g id="text_21">
      <!-- 0.98 -->
      <g style="fill: #262626" transform="translate(678.377813 281.401375) scale(0.12 -0.12)">
       <use xlink:href="#ArialMT-30"/>
       <use xlink:href="#ArialMT-2e" x="55.615234"/>
       <use xlink:href="#ArialMT-39" x="83.398438"/>
       <use xlink:href="#ArialMT-38" x="139.013672"/>
      </g>
     </g>
    </g>
   </g>
   <g id="matplotlib.axis_4">
    <g id="ytick_7">
     <g id="line2d_39">
      <path d="M 634.254375 236.127 
L 690.054375 236.127 
" clip-path="url(#p15ab9c34d6)" style="fill: none; stroke: #ffffff; stroke-width: 0.8; stroke-linecap: round"/>
     </g>
     <g id="line2d_40">
      <defs>
       <path id="m9cbbfe21e0" d="M 0 0 
L -2 0 
" style="stroke: #262626; stroke-width: 0.8"/>
      </defs>
      <g>
       <use xlink:href="#m9cbbfe21e0" x="634.254375" y="236.127" style="fill: #262626; stroke: #262626; stroke-width: 0.8"/>
      </g>
     </g>
     <g id="text_22">
      <!-- 0.46 -->
      <g style="fill: #262626" transform="translate(605.40125 240.421687) scale(0.12 -0.12)">
       <use xlink:href="#ArialMT-30"/>
       <use xlink:href="#ArialMT-2e" x="55.615234"/>
       <use xlink:href="#ArialMT-34" x="83.398438"/>
       <use xlink:href="#ArialMT-36" x="139.013672"/>
      </g>
     </g>
    </g>
    <g id="ytick_8">
     <g id="line2d_41">
      <path d="M 634.254375 173.757 
L 690.054375 173.757 
" clip-path="url(#p15ab9c34d6)" style="fill: none; stroke: #ffffff; stroke-width: 0.8; stroke-linecap: round"/>
     </g>
     <g id="line2d_42">
      <g>
       <use xlink:href="#m9cbbfe21e0" x="634.254375" y="173.757" style="fill: #262626; stroke: #262626; stroke-width: 0.8"/>
      </g>
     </g>
     <g id="text_23">
      <!-- 0.48 -->
      <g style="fill: #262626" transform="translate(605.40125 178.051687) scale(0.12 -0.12)">
       <use xlink:href="#ArialMT-30"/>
       <use xlink:href="#ArialMT-2e" x="55.615234"/>
       <use xlink:href="#ArialMT-34" x="83.398438"/>
       <use xlink:href="#ArialMT-38" x="139.013672"/>
      </g>
     </g>
    </g>
    <g id="ytick_9">
     <g id="line2d_43">
      <path d="M 634.254375 111.387 
L 690.054375 111.387 
" clip-path="url(#p15ab9c34d6)" style="fill: none; stroke: #ffffff; stroke-width: 0.8; stroke-linecap: round"/>
     </g>
     <g id="line2d_44">
      <g>
       <use xlink:href="#m9cbbfe21e0" x="634.254375" y="111.387" style="fill: #262626; stroke: #262626; stroke-width: 0.8"/>
      </g>
     </g>
     <g id="text_24">
      <!-- 0.50 -->
      <g style="fill: #262626" transform="translate(605.40125 115.681687) scale(0.12 -0.12)">
       <use xlink:href="#ArialMT-30"/>
       <use xlink:href="#ArialMT-2e" x="55.615234"/>
       <use xlink:href="#ArialMT-35" x="83.398438"/>
       <use xlink:href="#ArialMT-30" x="139.013672"/>
      </g>
     </g>
    </g>
    <g id="ytick_10">
     <g id="line2d_45">
      <path d="M 634.254375 49.017 
L 690.054375 49.017 
" clip-path="url(#p15ab9c34d6)" style="fill: none; stroke: #ffffff; stroke-width: 0.8; stroke-linecap: round"/>
     </g>
     <g id="line2d_46">
      <g>
       <use xlink:href="#m9cbbfe21e0" x="634.254375" y="49.017" style="fill: #262626; stroke: #262626; stroke-width: 0.8"/>
      </g>
     </g>
     <g id="text_25">
      <!-- 0.52 -->
      <g style="fill: #262626" transform="translate(605.40125 53.311687) scale(0.12 -0.12)">
       <use xlink:href="#ArialMT-30"/>
       <use xlink:href="#ArialMT-2e" x="55.615234"/>
       <use xlink:href="#ArialMT-35" x="83.398438"/>
       <use xlink:href="#ArialMT-32" x="139.013672"/>
      </g>
     </g>
    </g>
   </g>
   <g id="patch_9">
    <path d="M 634.254375 267.312 
L 539.481648 55.221953 
" style="fill: none; stroke: #808080; stroke-linejoin: miter"/>
   </g>
   <g id="patch_10">
    <path d="M 690.054375 17.832 
L 564.845284 16.71919 
" style="fill: none; stroke: #808080; stroke-linejoin: miter"/>
   </g>
   <g id="line2d_47">
    <path d="M 537.720706 322.04875 
L 544.97404 315.219956 
L 553.90204 307.174226 
L 560.59804 301.399388 
L 567.29404 295.847211 
L 573.99004 290.51863 
L 580.68604 285.413645 
L 587.382152 280.532881 
L 594.078152 275.877272 
L 600.77404 271.446507 
L 607.470152 267.244329 
L 614.166152 263.349634 
L 618.630152 260.95525 
L 623.094152 258.735501 
L 627.558152 256.701927 
L 632.022263 254.863572 
L 636.486152 253.218875 
L 640.950263 251.75661 
L 645.414152 250.466175 
L 649.878263 249.336654 
L 656.574263 247.921167 
L 663.270263 246.807551 
L 669.966263 245.959942 
L 676.662263 245.341856 
L 683.358263 244.917116 
L 692.286263 244.588114 
L 703.446375 244.439674 
L 709.930938 244.425476 
L 709.930938 244.425476 
" clip-path="url(#p15ab9c34d6)" style="fill: none; stroke-dasharray: 5.55,2.4; stroke-dashoffset: 0; stroke: #1f77b4; stroke-width: 1.5"/>
   </g>
   <g id="line2d_48">
    <path d="M 441.220862 322.04875 
L 448.997817 309.994286 
L 457.925817 296.486503 
L 466.853817 283.333606 
L 475.781817 270.538712 
L 484.709817 258.105564 
L 493.637817 246.038217 
L 502.565929 234.344465 
L 511.493929 223.032107 
L 520.421929 212.110184 
L 529.349929 201.583687 
L 538.277929 191.463843 
L 547.205929 181.771545 
L 553.90204 174.795772 
L 560.59804 168.085384 
L 567.29404 161.645682 
L 573.99004 155.476353 
L 580.68604 149.576151 
L 587.382152 143.943204 
L 594.078152 138.578449 
L 600.77404 133.479078 
L 607.470152 128.644779 
L 614.166152 124.078671 
L 620.862152 119.792605 
L 627.558152 115.797806 
L 634.254152 112.108621 
L 640.950263 108.752491 
L 647.646263 105.737837 
L 654.342152 103.051561 
L 661.038263 100.687115 
L 667.734263 98.632335 
L 674.430263 96.878491 
L 681.126263 95.414667 
L 687.822263 94.245541 
L 692.286263 93.71103 
L 696.750263 93.367995 
L 703.446375 93.120386 
L 709.930938 93.065661 
L 709.930938 93.065661 
" clip-path="url(#p15ab9c34d6)" style="fill: none; stroke-dasharray: 5.55,2.4; stroke-dashoffset: 0; stroke: #ff7f0e; stroke-width: 1.5"/>
   </g>
   <g id="line2d_49">
    <path d="M 422.161792 322.04875 
L 431.141705 307.148966 
L 442.301817 289.066656 
L 453.461817 271.492661 
L 462.389817 257.815232 
L 471.317929 244.485204 
L 480.245929 231.510684 
L 489.173929 218.897599 
L 498.101929 206.659358 
L 507.029929 194.808122 
L 515.957929 183.355119 
L 524.88604 172.312511 
L 533.81404 161.681856 
L 542.74204 151.474694 
L 549.43804 144.103495 
L 556.13404 136.980529 
L 562.83004 130.113592 
L 569.52604 123.509857 
L 576.22204 117.164957 
L 582.91804 111.084505 
L 589.61404 105.272869 
L 596.310152 99.735348 
L 603.006152 94.475063 
L 609.702152 89.504485 
L 616.398152 84.822681 
L 623.094152 80.428715 
L 629.790152 76.327576 
L 636.486152 72.524565 
L 643.182152 69.035587 
L 649.878263 65.862825 
L 656.574263 62.996924 
L 663.270263 60.441313 
L 669.966263 58.209714 
L 676.662263 56.317408 
L 683.358263 54.75847 
L 690.054263 53.518867 
L 694.518375 52.881445 
L 698.982263 52.407745 
L 705.678375 51.966477 
L 709.930938 51.874379 
L 709.930938 51.874379 
" clip-path="url(#p15ab9c34d6)" style="fill: none; stroke-dasharray: 5.55,2.4; stroke-dashoffset: 0; stroke: #2ca02c; stroke-width: 1.5"/>
   </g>
   <g id="line2d_50">
    <path d="M 417.554864 322.04875 
L 426.677817 306.668406 
L 437.837817 288.284536 
L 448.997817 270.399627 
L 460.157817 253.033012 
L 469.085817 239.527412 
L 478.013817 226.373579 
L 486.941929 213.583052 
L 495.869929 201.167368 
L 504.797929 189.134012 
L 513.725929 177.496705 
L 522.653929 166.257319 
L 531.581929 155.437684 
L 540.51004 145.041228 
L 547.205929 137.527203 
L 553.90204 130.259226 
L 560.59804 123.244784 
L 567.29404 116.487307 
L 573.99004 109.991471 
L 580.68604 103.760708 
L 587.382152 97.798136 
L 594.078152 92.10625 
L 600.77404 86.695964 
L 607.470152 81.570398 
L 614.166152 76.72612 
L 620.862152 72.174981 
L 627.558152 67.919788 
L 634.254152 63.961476 
L 640.950263 60.308465 
L 647.646263 56.965121 
L 654.342152 53.924895 
L 661.038263 51.206811 
L 667.734263 48.810867 
L 674.430263 46.738312 
L 681.126263 44.998189 
L 685.590375 44.016173 
L 692.286263 42.828649 
L 696.750263 42.228961 
L 701.214263 41.77366 
L 707.910263 41.393515 
L 709.930938 41.351168 
L 709.930938 41.351168 
" clip-path="url(#p15ab9c34d6)" style="fill: none; stroke-dasharray: 5.55,2.4; stroke-dashoffset: 0; stroke: #d62728; stroke-width: 1.5"/>
   </g>
   <g id="line2d_51">
    <path d="M 416.03457 322.04875 
L 426.105838 304.992988 
L 437.288203 286.513965 
L 448.470567 268.533659 
L 457.416459 254.521737 
L 466.362351 240.851703 
L 475.308243 227.533648 
L 484.254135 214.577667 
L 493.200026 201.993851 
L 502.145918 189.792293 
L 511.09181 177.983086 
L 520.037702 166.576322 
L 528.983593 155.582094 
L 537.929485 145.010494 
L 546.875377 134.871615 
L 553.584796 127.557501 
L 560.294215 120.496727 
L 567.003634 113.693552 
L 573.713052 107.152232 
L 580.422471 100.877027 
L 587.13189 94.872194 
L 593.841309 89.14199 
L 600.550728 83.690674 
L 607.260147 78.522503 
L 613.969565 73.641735 
L 620.678984 69.052629 
L 627.388403 64.759441 
L 634.097822 60.766429 
L 640.807241 57.077852 
L 647.51666 53.697968 
L 654.226078 50.631033 
L 660.935497 47.881306 
L 667.644916 45.453046 
L 674.354335 43.350508 
L 681.063754 41.577952 
L 687.773173 40.139636 
L 692.246118 39.368549 
L 696.719064 38.749167 
L 701.19201 38.282751 
L 705.664956 37.970563 
L 709.930938 37.819309 
L 709.930938 37.819309 
" clip-path="url(#p15ab9c34d6)" style="fill: none; stroke: #9467bd; stroke-width: 1.5; stroke-linecap: round"/>
   </g>
   <g id="patch_11">
    <path d="M 634.254375 267.312 
L 634.254375 17.832 
" style="fill: none"/>
   </g>
   <g id="patch_12">
    <path d="M 690.054375 267.312 
L 690.054375 17.832 
" style="fill: none"/>
   </g>
   <g id="patch_13">
    <path d="M 634.254375 267.312 
L 690.054375 267.312 
" style="fill: none"/>
   </g>
   <g id="patch_14">
    <path d="M 634.254375 17.832 
L 690.054375 17.832 
" style="fill: none"/>
   </g>
  </g>
 </g>
 <defs>
  <clipPath id="p229495e34f">
   <rect x="42.354375" y="7.2" width="558" height="277.2"/>
  </clipPath>
  <clipPath id="p15ab9c34d6">
   <rect x="634.254375" y="17.832" width="55.8" height="249.48"/>
  </clipPath>
 </defs>
</svg>
